<?xml version="1.0" encoding="UTF-8" standalone="no"?>
<svg
   xmlns:dc="http://purl.org/dc/elements/1.1/"
   xmlns:cc="http://creativecommons.org/ns#"
   xmlns:rdf="http://www.w3.org/1999/02/22-rdf-syntax-ns#"
   xmlns:svg="http://www.w3.org/2000/svg"
   xmlns="http://www.w3.org/2000/svg"
   viewBox="0 0 755.90668 755.90668"
   height="755.90668"
   width="755.90668"
   xml:space="preserve"
   id="svg2"
   version="1.1"><metadata
     id="metadata8"><rdf:RDF><cc:Work
         rdf:about=""><dc:format>image/svg+xml</dc:format><dc:type
           rdf:resource="http://purl.org/dc/dcmitype/StillImage" /></cc:Work></rdf:RDF></metadata><defs
     id="defs6"><clipPath
       id="clipPath18"
       clipPathUnits="userSpaceOnUse"><path
         id="path16"
         d="M 0,566.93 H 566.93 V 0 H 0 Z" /></clipPath></defs><g
     transform="matrix(1.3333333,0,0,-1.3333333,0,755.90667)"
     id="g10"><g
       id="g12"><g
         clip-path="url(#clipPath18)"
         id="g14"><g
           transform="translate(376.4697,224.8099)"
           id="g20"><path
             id="path22"
             style="fill:#9fa3a3;fill-opacity:1;fill-rule:nonzero;stroke:none"
             d="M 0,0 C 22.292,0 39.691,4.349 48.392,8.7 L 43.499,27.459 C 33.982,22.837 19.303,19.845 4.893,19.845 c -44.587,0 -70.414,28.818 -70.414,73.676 0,48.122 28.545,75.58 71.501,75.58 15.225,0 28.002,-3.26 36.974,-7.611 l 5.71,19.303 c -6.253,3.263 -20.661,8.156 -43.5,8.156 -47.687,0 -82.724,-27.392 -92.759,-70.107 v 67.115 h -22.294 v -76.668 c 0,-28.548 0.545,-50.84 2.719,-75.31 l -0.543,-0.271 c -8.7,18.76 -19.303,38.063 -32.897,59.54 l -58.723,92.709 h -25.828 V 2.716 h 22.293 v 78.299 c 0,30.447 -0.543,52.469 -1.902,75.579 l 0.815,0.271 c 9.244,-19.847 21.477,-40.781 34.256,-61.169 l 58.179,-92.98 h 23.925 V 65.807 C -77.646,22.958 -43.324,0 0,0" /></g><g
           transform="translate(158.6543,295.5184)"
           id="g24"><path
             id="path26"
             style="fill:#932326;fill-opacity:1;fill-rule:nonzero;stroke:none"
             d="m 0,0 c 0,-0.355 0.112,-0.664 0.333,-0.924 0.222,-0.26 0.568,-0.39 1.037,-0.39 h 7.156 c 0.469,0 0.815,0.13 1.037,0.39 0.222,0.26 0.333,0.569 0.333,0.924 0,0.356 -0.111,0.664 -0.333,0.924 -0.222,0.26 -0.568,0.39 -1.037,0.39 H 1.37 C 0.901,1.314 0.555,1.184 0.333,0.924 0.112,0.664 0,0.356 0,0" /></g><g
           transform="translate(378.3984,227.5286)"
           id="g28"><path
             id="path30"
             style="fill:#932326;fill-opacity:1;fill-rule:nonzero;stroke:none"
             d="M 0,0 C 22.293,0 39.692,4.349 48.393,8.7 L 43.499,27.459 C 33.983,22.837 19.304,19.845 4.893,19.845 c -44.586,0 -70.414,28.818 -70.414,73.676 0,48.121 28.546,75.58 71.502,75.58 15.224,0 28.002,-3.26 36.974,-7.611 l 5.709,19.303 c -6.252,3.263 -20.661,8.155 -43.499,8.155 -47.688,0 -82.725,-27.391 -92.759,-70.107 v 67.116 h -22.294 v -76.669 c 0,-28.547 0.544,-50.84 2.719,-75.309 l -0.543,-0.271 c -8.7,18.759 -19.303,38.063 -32.897,59.54 l -58.724,92.709 H -225.16 V 2.716 h 22.293 v 78.298 c 0,30.448 -0.543,52.47 -1.903,75.58 l 0.815,0.271 c 9.245,-19.847 21.478,-40.781 34.257,-61.17 l 58.179,-92.979 h 23.925 V 65.807 C -77.645,22.958 -43.323,0 0,0" /></g><g
           transform="translate(312.5078,330.6185)"
           id="g32"><path
             id="path34"
             style="fill:#ffffff;fill-opacity:1;fill-rule:nonzero;stroke:none"
             d="M 0,0 -21.78,14.605 -43.186,-0.656 V -26.253 L -21.505,-40.75 0,-25.353 Z" /></g><g
           transform="translate(312.5078,330.6185)"
           id="g36"><path
             id="path38"
             style="fill:none;stroke:#4a1918;stroke-width:2;stroke-linecap:butt;stroke-linejoin:miter;stroke-miterlimit:10;stroke-dasharray:none;stroke-opacity:1"
             d="M 0,0 -21.78,14.605 -43.186,-0.656 V -26.253 L -21.505,-40.75 0,-25.353 Z" /></g><g
           transform="translate(303.6289,307.5999)"
           id="g40"><path
             id="path42"
             style="fill:none;stroke:#932326;stroke-width:5;stroke-linecap:butt;stroke-linejoin:miter;stroke-miterlimit:10;stroke-dasharray:none;stroke-opacity:1"
             d="M 0,0 -25.778,20.501" /></g><g
           transform="translate(168.5503,282.9339)"
           id="g44"><path
             id="path46"
             style="fill:#932326;fill-opacity:1;fill-rule:nonzero;stroke:none"
             d="M 0,0 C 0,0.353 -0.111,0.661 -0.333,0.921 -0.555,1.181 -0.901,1.312 -1.37,1.312 H -8.526 C -8.995,1.312 -9.341,1.181 -9.563,0.921 -9.784,0.661 -9.896,0.353 -9.896,0 c 0,-0.355 0.112,-0.664 0.333,-0.924 0.222,-0.261 0.568,-0.39 1.037,-0.39 h 7.156 c 0.469,0 0.815,0.129 1.037,0.39 C -0.111,-0.664 0,-0.355 0,0" /></g><g
           transform="translate(169.5591,237.2415)"
           id="g48"><path
             id="path50"
             style="fill:#ffffff;fill-opacity:1;fill-rule:nonzero;stroke:none"
             d="M 0,0 C 0.292,0.292 0.521,0.643 0.685,1.049 0.85,1.452 0.932,1.891 0.932,2.36 0.932,2.981 0.83,3.51 0.628,3.94 0.425,4.373 0.146,4.721 -0.209,4.986 -0.552,5.241 -0.968,5.424 -1.456,5.538 -1.945,5.652 -2.474,5.711 -3.045,5.711 -3.54,5.711 -3.981,5.685 -4.369,5.634 -4.755,5.583 -5.1,5.487 -5.405,5.35 -5.697,5.195 -5.954,4.986 -6.175,4.721 -6.398,4.455 -6.59,4.104 -6.756,3.675 L -7.346,2.19 C -7.448,1.936 -7.549,1.736 -7.651,1.591 -7.752,1.444 -7.873,1.333 -8.012,1.256 -8.151,1.182 -8.31,1.134 -8.487,1.115 -8.666,1.097 -8.887,1.086 -9.154,1.086 c -0.228,0 -0.447,0.018 -0.657,0.056 -0.208,0.04 -0.396,0.109 -0.562,0.21 -0.15,0.1 -0.278,0.236 -0.379,0.401 -0.102,0.164 -0.153,0.379 -0.153,0.647 0,0.494 0.162,0.844 0.486,1.054 0.323,0.21 0.707,0.317 1.151,0.317 h 0.438 v 1.94 h -0.952 c -0.787,0 -1.484,-0.292 -2.093,-0.876 -0.292,-0.292 -0.527,-0.638 -0.705,-1.038 -0.176,-0.399 -0.265,-0.839 -0.265,-1.322 0,-0.572 0.098,-1.062 0.294,-1.474 0.197,-0.414 0.46,-0.751 0.79,-1.02 0.331,-0.278 0.723,-0.488 1.18,-0.626 0.457,-0.14 0.939,-0.209 1.446,-0.209 0.851,0 1.558,0.143 2.122,0.427 0.564,0.286 1.018,0.847 1.361,1.683 l 0.571,1.391 c 0.101,0.239 0.196,0.433 0.285,0.579 0.089,0.146 0.203,0.262 0.342,0.353 0.14,0.077 0.325,0.127 0.553,0.151 0.228,0.027 0.52,0.041 0.875,0.041 0.305,0 0.58,-0.011 0.828,-0.03 0.247,-0.018 0.459,-0.08 0.637,-0.18 0.178,-0.104 0.314,-0.245 0.409,-0.431 0.095,-0.183 0.143,-0.441 0.143,-0.77 0,-0.494 -0.143,-0.846 -0.428,-1.056 C -1.723,1.097 -2.043,0.99 -2.398,0.99 h -0.61 v -1.94 h 0.723 c 0.457,0 0.879,0.085 1.267,0.258 0.386,0.17 0.726,0.4 1.018,0.692" /></g><g
           transform="translate(160.0244,246.5472)"
           id="g52"><path
             id="path54"
             style="fill:#ffffff;fill-opacity:1;fill-rule:nonzero;stroke:none"
             d="m 0,0 c -0.469,0 -0.815,0.13 -1.037,0.39 -0.221,0.26 -0.333,0.568 -0.333,0.923 0,0.357 0.112,0.665 0.333,0.924 0.222,0.261 0.568,0.391 1.037,0.391 h 7.156 c 0.469,0 0.815,-0.13 1.037,-0.391 C 8.415,1.978 8.526,1.67 8.526,1.313 8.526,0.958 8.415,0.65 8.193,0.39 7.971,0.13 7.625,0 7.156,0 Z m 9.629,-0.893 c 0.28,0.303 0.488,0.649 0.628,1.037 0.139,0.386 0.209,0.777 0.209,1.169 0,0.394 -0.07,0.784 -0.209,1.171 C 10.117,2.872 9.909,3.223 9.629,3.541 9.363,3.844 9.026,4.094 8.62,4.282 8.215,4.473 7.727,4.568 7.156,4.568 H 0 C -0.545,4.568 -1.027,4.473 -1.446,4.282 -1.865,4.094 -2.213,3.844 -2.493,3.541 -2.76,3.223 -2.961,2.872 -3.102,2.484 -3.242,2.097 -3.311,1.707 -3.311,1.313 c 0,-0.392 0.069,-0.783 0.209,-1.169 0.141,-0.388 0.342,-0.734 0.609,-1.037 0.28,-0.318 0.628,-0.57 1.047,-0.761 0.419,-0.192 0.901,-0.287 1.446,-0.287 h 7.156 c 0.571,0 1.059,0.095 1.464,0.287 0.406,0.191 0.743,0.443 1.009,0.761" /></g><g
           transform="translate(168.436,258.9368)"
           id="g56"><path
             id="path58"
             style="fill:#ffffff;fill-opacity:1;fill-rule:nonzero;stroke:none"
             d="M 0,0 V -3.844 H -11.608 V -5.785 H 1.941 l 0,5.785 z" /></g><g
           transform="translate(169.5591,261.4485)"
           id="g60"><path
             id="path62"
             style="fill:#ffffff;fill-opacity:1;fill-rule:nonzero;stroke:none"
             d="M 0,0 C 0.292,0.292 0.521,0.624 0.685,0.998 0.85,1.372 0.932,1.776 0.932,2.209 0.932,2.639 0.85,3.045 0.685,3.425 0.521,3.807 0.292,4.142 0,4.434 -0.292,4.726 -0.625,4.951 -1,5.11 -1.374,5.267 -1.783,5.347 -2.228,5.347 H -12.731 V 3.406 h 10.314 c 0.481,0 0.837,-0.114 1.066,-0.343 0.228,-0.228 0.342,-0.512 0.342,-0.854 0,-0.343 -0.114,-0.63 -0.342,-0.857 C -1.58,1.123 -1.936,1.009 -2.417,1.009 h -10.314 v -1.941 h 10.503 c 0.445,0 0.854,0.082 1.228,0.246 0.375,0.165 0.708,0.394 1,0.686" /></g><g
           transform="translate(170.377,270.223)"
           id="g64"><path
             id="path66"
             style="fill:#ffffff;fill-opacity:1;fill-rule:nonzero;stroke:none"
             d="m 0,0 v 1.94 h -11.723 v 2.247 h -1.826 v -6.433 h 1.826 V 0 Z" /></g><path
           id="path68"
           style="fill:#ffffff;fill-opacity:1;fill-rule:nonzero;stroke:none"
           d="m 156.828,275.644 h 13.549 v 1.94 h -13.549 z" /><g
           transform="translate(160.0244,281.6194)"
           id="g70"><path
             id="path72"
             style="fill:#ffffff;fill-opacity:1;fill-rule:nonzero;stroke:none"
             d="M 0,0 C -0.469,0 -0.815,0.13 -1.037,0.391 -1.258,0.65 -1.37,0.959 -1.37,1.314 c 0,0.353 0.112,0.662 0.333,0.921 0.222,0.261 0.568,0.391 1.037,0.391 h 7.156 c 0.469,0 0.815,-0.13 1.037,-0.391 C 8.415,1.976 8.526,1.667 8.526,1.314 8.526,0.959 8.415,0.65 8.193,0.391 7.971,0.13 7.625,0 7.156,0 Z m 9.629,-0.895 c 0.28,0.306 0.488,0.651 0.628,1.039 0.139,0.384 0.209,0.775 0.209,1.17 0,0.393 -0.07,0.784 -0.209,1.168 C 10.117,2.87 9.909,3.223 9.629,3.539 9.363,3.844 9.026,4.091 8.62,4.282 8.215,4.471 7.727,4.566 7.156,4.566 H 0 C -0.545,4.566 -1.027,4.471 -1.446,4.282 -1.865,4.091 -2.213,3.844 -2.493,3.539 -2.76,3.223 -2.961,2.87 -3.102,2.482 -3.242,2.098 -3.311,1.707 -3.311,1.314 c 0,-0.395 0.069,-0.786 0.209,-1.17 0.141,-0.388 0.342,-0.733 0.609,-1.039 0.28,-0.315 0.628,-0.57 1.047,-0.761 C -1.027,-1.845 -0.545,-1.94 0,-1.94 h 7.156 c 0.571,0 1.059,0.095 1.464,0.284 0.406,0.191 0.743,0.446 1.009,0.761" /></g><g
           transform="translate(162.2319,290.0887)"
           id="g74"><path
             id="path76"
             style="fill:#ffffff;fill-opacity:1;fill-rule:nonzero;stroke:none"
             d="M 0,0 V 0.037 L 8.145,3.005 V 4.832 H -5.404 V 2.891 H 2.76 V 2.854 L -5.404,-0.077 V -1.941 H 8.145 V 0 Z" /></g><g
           transform="translate(169.5591,297.5643)"
           id="g78"><path
             id="path80"
             style="fill:#ffffff;fill-opacity:1;fill-rule:nonzero;stroke:none"
             d="M 0,0 C 0.292,0.292 0.521,0.643 0.685,1.049 0.85,1.452 0.932,1.891 0.932,2.36 0.932,2.981 0.83,3.51 0.628,3.94 0.425,4.373 0.146,4.721 -0.209,4.986 -0.552,5.241 -0.968,5.424 -1.456,5.538 -1.945,5.652 -2.474,5.711 -3.045,5.711 -3.54,5.711 -3.981,5.684 -4.369,5.634 -4.755,5.583 -5.1,5.488 -5.405,5.35 -5.697,5.196 -5.954,4.986 -6.175,4.721 -6.398,4.455 -6.59,4.104 -6.756,3.674 L -7.346,2.19 C -7.448,1.936 -7.549,1.736 -7.651,1.59 -7.752,1.444 -7.873,1.333 -8.012,1.256 -8.151,1.182 -8.31,1.134 -8.487,1.115 -8.666,1.097 -8.887,1.086 -9.154,1.086 c -0.228,0 -0.447,0.018 -0.657,0.056 -0.208,0.04 -0.396,0.108 -0.562,0.21 -0.15,0.1 -0.278,0.236 -0.379,0.4 -0.102,0.165 -0.153,0.38 -0.153,0.648 0,0.494 0.162,0.844 0.486,1.054 0.323,0.21 0.707,0.316 1.151,0.316 h 0.438 v 1.941 h -0.952 c -0.787,0 -1.484,-0.293 -2.093,-0.877 -0.292,-0.292 -0.527,-0.637 -0.705,-1.038 -0.176,-0.398 -0.265,-0.838 -0.265,-1.321 0,-0.571 0.098,-1.062 0.294,-1.474 0.197,-0.414 0.46,-0.751 0.79,-1.02 0.331,-0.278 0.723,-0.488 1.18,-0.626 0.457,-0.141 0.939,-0.209 1.446,-0.209 0.851,0 1.558,0.143 2.122,0.427 0.564,0.286 1.018,0.846 1.361,1.683 l 0.571,1.391 c 0.101,0.239 0.196,0.433 0.285,0.579 0.089,0.146 0.203,0.263 0.342,0.353 0.14,0.077 0.325,0.128 0.553,0.151 0.228,0.027 0.52,0.04 0.875,0.04 0.305,0 0.58,-0.011 0.828,-0.029 0.247,-0.019 0.459,-0.08 0.637,-0.18 0.178,-0.104 0.314,-0.245 0.409,-0.431 0.095,-0.183 0.143,-0.441 0.143,-0.77 0,-0.493 -0.143,-0.846 -0.428,-1.056 C -1.723,1.097 -2.043,0.99 -2.398,0.99 h -0.61 v -1.94 h 0.723 c 0.457,0 0.879,0.085 1.267,0.257 C -0.632,-0.523 -0.292,-0.292 0,0" /></g></g></g></g></svg>