<?xml version="1.0" standalone="no"?>
<!DOCTYPE svg PUBLIC "-//W3C//DTD SVG 20010904//EN"
 "http://www.w3.org/TR/2001/REC-SVG-20010904/DTD/svg10.dtd">
<svg version="1.0" xmlns="http://www.w3.org/2000/svg"
 width="6300.000000pt" height="6300.000000pt" viewBox="0 0 6300.000000 6300.000000"
 preserveAspectRatio="xMidYMid meet">

<g transform="translate(0.000000,6300.000000) scale(0.100000,-0.100000)"
fill="#000000" stroke="none">
<path d="M42250 46273 c-1003 -36 -1760 -136 -2625 -348 -769 -189 -1475 -446
-2165 -792 -543 -271 -964 -526 -1405 -848 -888 -651 -1620 -1411 -2273 -2360
-321 -467 -629 -995 -718 -1232 -13 -34 -49 -120 -80 -190 -166 -375 -319
-760 -408 -1028 -84 -252 -218 -729 -232 -827 -13 -98 -24 -42 -25 135 -1 100
-3 1754 -6 3675 l-4 3493 -1234 -3 c-678 -2 -1237 -7 -1242 -11 -4 -5 -8
-2073 -9 -4595 0 -2796 -4 -4595 -10 -4607 -5 -12 -9 -611 -9 -1498 l0 -1479
32 -26 32 -27 10 -365 c6 -201 13 -419 16 -485 3 -66 14 -334 25 -595 11 -261
25 -554 30 -650 5 -96 14 -260 20 -365 11 -208 13 -249 35 -565 32 -462 57
-805 75 -1035 33 -407 44 -585 36 -592 -15 -15 -42 16 -78 88 -21 41 -155 313
-299 604 -319 646 -485 980 -509 1020 -10 17 -87 165 -173 330 -200 387 -624
1176 -707 1314 -15 25 -85 150 -155 276 -310 556 -941 1624 -1363 2305 -184
297 -1173 1865 -1837 2910 -155 245 -459 724 -675 1065 -216 341 -445 703
-510 805 -207 327 -393 620 -507 800 -122 193 -828 1309 -1013 1600 -313 493
-405 639 -510 805 -62 99 -159 252 -215 340 -56 88 -156 246 -222 350 -66 105
-387 611 -713 1125 -326 514 -624 986 -663 1048 l-69 112 -1437 -2 -1436 -3
-8 -570 c-4 -313 -6 -4892 -4 -10174 4 -8201 6 -9604 18 -9612 8 -5 540 -8
1239 -6 l1225 2 0 4645 c0 5400 -14 7679 -55 8975 -6 176 -15 502 -20 725 -6
223 -15 488 -20 590 -5 102 -12 248 -15 325 -2 77 -7 208 -10 290 -3 83 -10
227 -15 320 -6 94 -17 332 -25 530 -9 198 -20 405 -25 460 -5 55 -9 128 -10
162 0 58 2 63 27 76 16 8 34 12 41 10 7 -3 47 -75 89 -162 41 -86 111 -229
154 -318 92 -191 315 -637 386 -773 28 -52 92 -178 143 -280 80 -158 181 -349
325 -615 17 -33 58 -109 90 -170 55 -104 155 -289 198 -365 23 -41 45 -81 119
-215 31 -55 66 -118 78 -140 13 -22 36 -65 53 -95 41 -75 454 -797 537 -940
186 -319 290 -494 550 -930 333 -556 689 -1138 1073 -1750 88 -140 188 -300
222 -355 91 -147 402 -644 525 -840 59 -93 130 -208 159 -255 29 -47 80 -129
114 -182 80 -126 316 -503 1964 -3138 1711 -2736 1628 -2602 1680 -2685 70
-111 219 -350 290 -465 36 -58 85 -136 110 -175 24 -38 79 -126 122 -195 43
-69 140 -224 216 -345 308 -490 883 -1409 969 -1549 50 -81 100 -154 112 -162
17 -12 233 -14 1334 -14 723 0 1317 3 1321 7 4 5 9 1463 11 3242 3 2417 7
3236 16 3239 6 2 28 15 48 28 20 14 40 22 45 17 4 -4 19 -50 34 -102 64 -229
204 -634 328 -951 332 -849 830 -1704 1388 -2387 380 -464 879 -957 1319
-1304 84 -66 329 -250 386 -289 453 -313 744 -485 1209 -715 394 -195 658
-308 1050 -448 748 -268 1548 -455 2370 -551 321 -38 365 -42 855 -71 289 -17
1116 -20 1470 -5 1419 61 2745 283 3820 640 276 91 431 152 632 248 l147 70
-20 69 c-26 93 -450 1715 -491 1881 -19 78 -37 132 -44 132 -7 0 -70 -25 -141
-56 -917 -401 -1976 -644 -3263 -749 -1127 -92 -2283 0 -3300 261 -1009 260
-1914 700 -2650 1289 -849 679 -1511 1542 -1966 2562 -310 696 -514 1404 -653
2263 -67 410 -64 339 -69 1680 -3 674 -4 1257 -3 1295 7 244 112 903 212 1340
164 711 362 1270 677 1909 211 429 513 893 802 1236 40 47 124 150 188 230
258 322 804 810 1272 1137 404 282 966 576 1465 768 39 15 88 34 110 42 83 32
425 143 545 177 284 80 591 150 825 190 678 114 981 143 1620 153 428 6 708
-3 1090 -37 1171 -105 2121 -334 3020 -730 22 -10 51 -21 65 -25 14 -4 40 -16
59 -26 18 -11 35 -18 37 -16 2 2 65 210 140 463 74 252 164 558 200 679 36
121 103 346 149 500 127 429 148 506 139 515 -13 11 -376 173 -479 213 -911
355 -2033 575 -3345 657 -361 22 -1061 34 -1370 23z m-9118 -8610 c450 -302
965 -647 1145 -768 l328 -220 3 -1330 c1 -731 0 -1339 -3 -1351 -2 -11 -33
-40 -67 -64 -78 -55 -268 -190 -903 -645 -566 -406 -1077 -771 -1209 -864 -53
-37 -96 -61 -106 -58 -14 4 -582 381 -2101 1398 l-176 118 -6 122 c-8 147 -7
1786 2 2264 l6 339 441 316 c565 403 755 539 869 620 51 36 199 142 331 236
482 344 609 434 619 434 5 0 377 -246 827 -547z m-15282 -3968 c6 -3 10 -49
10 -105 0 -110 5 -103 -83 -116 -130 -18 -186 -138 -106 -229 34 -39 80 -55
154 -55 70 0 117 15 147 47 14 16 46 82 72 148 103 263 182 320 436 319 244
-2 368 -62 439 -214 23 -48 26 -67 26 -160 -1 -95 -3 -111 -30 -165 -40 -83
-115 -156 -190 -184 -75 -28 -208 -40 -221 -20 -8 14 -7 209 1 217 2 3 28 5
57 6 66 2 106 21 135 65 46 68 21 170 -50 205 -49 24 -186 33 -246 16 -63 -17
-92 -54 -146 -182 -98 -236 -164 -296 -350 -320 -155 -20 -294 15 -381 94 -85
78 -107 130 -112 260 -4 98 -2 111 21 162 49 107 161 198 265 216 50 8 135 6
152 -5z m1088 -1026 c2 -69 -1 -99 -10 -106 -14 -11 -714 -268 -791 -291 -27
-8 -46 -16 -44 -19 3 -2 189 -7 414 -9 224 -3 414 -7 421 -9 8 -3 12 -35 12
-115 l0 -110 -759 0 -759 0 -6 23 c-11 41 -6 173 7 190 6 9 127 57 267 107
420 149 564 202 575 211 5 5 -180 9 -417 9 l-426 0 -4 24 c-4 20 -4 78 1 174
l1 22 758 -2 757 -3 3 -96z m-214 -890 c72 -27 144 -93 187 -171 32 -60 34
-67 33 -163 0 -89 -4 -107 -29 -160 -38 -79 -125 -166 -190 -190 -46 -18 -87
-20 -528 -23 -419 -3 -486 -1 -535 13 -135 40 -228 148 -251 296 -28 174 68
346 227 404 29 11 139 14 534 14 478 1 499 0 552 -20z m211 -1044 l0 -110
-760 0 -760 0 -3 113 -3 112 763 -2 763 -3 0 -110z m-1318 -250 c9 -3 13 -39
15 -117 l3 -113 640 -2 c352 -2 646 -3 653 -3 10 0 12 -26 10 -112 l-3 -113
-652 -3 -652 -2 -3 -123 -3 -122 -105 0 -105 0 -3 350 c-1 192 0 355 2 362 4
8 31 10 98 7 51 -3 98 -7 105 -9z m1083 -851 c97 -29 166 -89 218 -188 23 -44
26 -63 26 -141 1 -76 -3 -98 -25 -145 -51 -107 -145 -188 -244 -210 -74 -17
-1246 -15 -1257 2 -4 7 -8 59 -8 115 l0 102 613 3 c680 3 643 0 681 70 24 45
15 97 -24 141 l-28 32 -619 5 -618 5 -3 99 c-1 55 0 106 2 113 4 11 120 13
619 13 534 0 620 -2 667 -16z m230 -859 c7 -8 9 -132 8 -331 l-3 -319 -760 0
-760 0 -3 113 -3 112 628 0 c345 0 638 3 651 6 22 6 22 7 22 213 0 114 3 210
6 214 11 11 204 4 214 -8z m-395 -865 c138 -6 154 -9 208 -35 112 -55 194
-173 204 -293 13 -154 -68 -306 -196 -372 -75 -38 -138 -41 -616 -38 -514 3
-488 0 -590 77 -70 53 -112 121 -131 212 -20 94 -12 165 27 245 59 125 170
193 329 205 114 8 556 7 765 -1z m-680 -1025 l0 -110 -61 -6 c-108 -10 -170
-69 -161 -151 12 -91 83 -133 218 -126 81 3 82 3 118 44 22 25 49 76 69 130
76 201 114 253 222 303 47 22 72 26 182 29 152 5 242 -8 325 -49 108 -52 170
-150 180 -283 13 -169 -62 -308 -203 -377 -57 -28 -75 -32 -152 -33 l-87 -1
-5 103 c-3 56 -3 107 -2 112 2 6 27 10 55 10 64 0 114 24 145 70 20 29 23 44
19 87 -6 59 -28 94 -72 119 -25 13 -53 16 -157 13 -165 -5 -159 1 -249 -222
-36 -90 -88 -172 -131 -206 -112 -90 -351 -107 -503 -35 -63 29 -130 94 -161
156 -32 63 -49 184 -35 249 20 90 69 164 151 224 71 52 112 64 210 62 l85 -2
0 -110z"/>
<path d="M30868 36461 c-93 -116 -168 -214 -168 -220 0 -8 136 -118 600 -486
137 -109 515 -409 1030 -820 206 -164 416 -331 465 -370 50 -39 212 -168 360
-286 362 -287 393 -311 410 -307 8 2 85 91 171 198 147 184 180 229 172 234
-6 4 -589 467 -883 701 -159 127 -366 291 -460 365 -93 74 -316 252 -496 395
-179 143 -454 361 -610 485 -156 124 -310 246 -343 273 -33 26 -64 47 -70 47
-6 0 -86 -94 -178 -209z"/>
<path d="M17730 31570 c-95 -23 -126 -165 -50 -232 l30 -28 348 -2 c550 -2
558 -2 590 11 42 18 77 85 68 133 -10 52 -46 101 -86 115 -41 14 -842 16 -900
3z"/>
<path d="M17710 27662 c-48 -26 -84 -92 -76 -138 10 -48 59 -101 108 -114 26
-8 183 -10 462 -8 463 3 452 2 493 65 22 32 21 108 0 150 -33 62 -39 63 -519
63 -402 0 -436 -1 -468 -18z"/>
<path d="M37764 42472 c-137 -80 -352 -241 -481 -361 -84 -77 -115 -120 -45
-61 191 161 384 309 522 399 104 69 107 71 94 70 -5 0 -45 -21 -90 -47z"/>
<path d="M32825 40279 c-4 -6 -5 -12 -2 -15 2 -3 7 2 10 11 7 17 1 20 -8 4z"/>
<path d="M32801 40228 c-8 -21 -102 -236 -136 -313 -71 -157 -240 -613 -231
-622 2 -2 12 20 21 49 10 29 23 64 30 78 17 35 55 133 55 144 0 5 12 34 27 65
34 73 91 207 113 266 10 28 25 62 49 117 12 26 21 52 21 58 0 6 4 18 9 28 32
60 66 152 56 152 -3 0 -9 -10 -14 -22z"/>
</g>
</svg>
